# xmcd
#
# Track frame offsets:
# 150
# 28874
# 49986
# 78955
# 104155
# 128118
# 147993
# 170718
# 187108
# 207396
# 232272
# 254590
# 278665
# 297735
# 310110
#
# Disc length: 4412 seconds
#
# Revision: 0
# Processed by: cddbd v1.5PL3 Copyright (c) Steve Scherf et al.
# Submitted via: Audion 3.0.2 (http://www.panic.com/audion/)
#
DISCID=f7113a0f
DTITLE=My Favourites Blues - Blues Rock (vol.8)
DYEAR=1900
DGENRE=
TTITLE0=Blue Cheer_Blue Steel Dues
TTITLE1=Pat Vig Group_Will You Miss Me
TTITLE2=The Moody Marsden Band_Fool For Your Lovin'
TTITLE3=Jim Suhler and Monkey Beat_Restless Soul
TTITLE4=ZZ Top_What's Up With That
TTITLE5=Great White_Lil Mama
TTITLE6=Pat Vig Group_I'm All Wound Up
TTITLE7=Gwyn Ashton_Loaded 6 Shooter
TTITLE8=Blue Cheer_Down And Dirty
TTITLE9=The Moody Marsden Band_Foolin' With My Heart
TTITLE10=ZZ Top_She's Just Killing Me
TTITLE11=Jim Suhler and Monkey Beat_Lover's Curse
TTITLE12=Gwyn Ashton_Too Late
TTITLE13=Great White_Ain't No Way To Treat A Lady
TTITLE14=Pat Vig Group_Easy Love
EXTD=
EXTT0=
EXTT1=
EXTT2=
EXTT3=
EXTT4=
EXTT5=
EXTT6=
EXTT7=
EXTT8=
EXTT9=
EXTT10=
EXTT11=
EXTT12=
EXTT13=
EXTT14=
PLAYORDER=
